<svg width="300" height="300" xmlns="http://www.w3.org/2000/svg">
  <rect width="300" height="300" fill="#f5f3ef"/>
  <g transform="translate(150, 150)">
    <!-- Toolbox -->
    <rect x="-60" y="-20" width="120" height="60" fill="#0066cc" rx="5"/>
    <rect x="-55" y="-15" width="110" height="50" fill="#60A5FA" rx="3"/>
    <!-- Handle -->
    <path d="M 30,-20 Q 50,-40 70,-20" stroke="#333" stroke-width="4" fill="none"/>
    <!-- Tools -->
    <!-- Screwdriver -->
    <line x1="-40" y1="-30" x2="-40" y2="-55" stroke="#ffd700" stroke-width="3"/>
    <rect x="-43" y="-30" width="6" height="15" fill="#333"/>
    <!-- Wrench -->
    <path d="M -10,-50 L -10,-35 L -15,-30 L -5,-30 L -10,-35" fill="#c0c0c0" stroke="#666" stroke-width="1"/>
    <!-- Pliers -->
    <path d="M 20,-50 L 15,-35 L 20,-35 M 25,-50 L 30,-35 L 25,-35" stroke="#ff4444" stroke-width="3" fill="none"/>
    <circle cx="22.5" cy="-35" r="3" fill="#333"/>
    <!-- Components in box -->
    <circle cx="-30" cy="5" r="6" fill="#333"/>
    <rect x="-10" y="-1" width="12" height="12" fill="#0066cc" rx="2"/>
    <circle cx="20" cy="5" r="5" fill="#ffc107"/>
    <rect x="30" y="0" width="15" height="10" fill="#4caf50" rx="1"/>
  </g>
  <text x="150" y="260" font-family="Arial, sans-serif" font-size="22" fill="#0066cc" text-anchor="middle" font-weight="bold">DIY KITS</text>
</svg>
