<svg width="300" height="300" xmlns="http://www.w3.org/2000/svg">
  <rect width="300" height="300" fill="#f5f3ef"/>
  <g transform="translate(150, 150)">
    <!-- Transmitter body -->
    <rect x="-45" y="-50" width="90" height="100" fill="#333" rx="8"/>
    <rect x="-40" y="-45" width="80" height="90" fill="#555" rx="5"/>
    <!-- Screen -->
    <rect x="-30" y="-35" width="60" height="30" fill="#0066cc" rx="3"/>
    <text x="0" y="-12" font-family="monospace" font-size="10" fill="#fff" text-anchor="middle">SIGNAL OK</text>
    <!-- Joysticks -->
    <circle cx="-20" cy="15" r="12" fill="#333"/>
    <circle cx="-20" cy="15" r="8" fill="#ff4444"/>
    <circle cx="20" cy="15" r="12" fill="#333"/>
    <circle cx="20" cy="15" r="8" fill="#ff4444"/>
    <!-- Antenna -->
    <line x1="35" y1="-50" x2="35" y2="-75" stroke="#333" stroke-width="3"/>
    <line x1="35" y1="-75" x2="45" y2="-85" stroke="#333" stroke-width="3"/>
    <!-- Switches -->
    <rect x="-35" y="35" width="12" height="6" fill="#666" rx="1"/>
    <rect x="23" y="35" width="12" height="6" fill="#666" rx="1"/>
    <!-- Signal waves -->
    <path d="M 35,-50 Q 50,-60 55,-70" stroke="#0066cc" stroke-width="2" fill="none" opacity="0.6"/>
    <path d="M 35,-50 Q 20,-60 15,-70" stroke="#0066cc" stroke-width="2" fill="none" opacity="0.6"/>
  </g>
  <text x="150" y="265" font-family="Arial, sans-serif" font-size="13" fill="#0066cc" text-anchor="middle" font-weight="bold">DRONE TRANSMITTER</text>
</svg>
