<svg width="300" height="300" xmlns="http://www.w3.org/2000/svg">
  <rect width="300" height="300" fill="#f5f3ef"/>
  <g transform="translate(150, 150)">
    <!-- Drone body -->
    <ellipse cx="0" cy="0" rx="25" ry="20" fill="#333"/>
    <!-- Arms -->
    <line x1="-25" y1="-20" x2="-50" y2="-45" stroke="#0066cc" stroke-width="4"/>
    <line x1="25" y1="-20" x2="50" y2="-45" stroke="#0066cc" stroke-width="4"/>
    <line x1="-25" y1="20" x2="-50" y2="45" stroke="#0066cc" stroke-width="4"/>
    <line x1="25" y1="20" x2="50" y2="45" stroke="#0066cc" stroke-width="4"/>
    <!-- Motors/Propellers -->
    <circle cx="-50" cy="-45" r="12" fill="#666"/>
    <circle cx="50" cy="-45" r="12" fill="#666"/>
    <circle cx="-50" cy="45" r="12" fill="#666"/>
    <circle cx="50" cy="45" r="12" fill="#666"/>
    <!-- Propeller blades -->
    <ellipse cx="-50" cy="-45" rx="20" ry="5" fill="#0066cc" opacity="0.5"/>
    <ellipse cx="50" cy="-45" rx="20" ry="5" fill="#ff4444" opacity="0.5"/>
    <ellipse cx="-50" cy="45" rx="20" ry="5" fill="#ff4444" opacity="0.5"/>
    <ellipse cx="50" cy="45" rx="20" ry="5" fill="#0066cc" opacity="0.5"/>
    <!-- Camera -->
    <circle cx="0" cy="5" r="6" fill="#333"/>
    <circle cx="0" cy="5" r="3" fill="#0066cc"/>
  </g>
  <text x="150" y="260" font-family="Arial, sans-serif" font-size="15" fill="#0066cc" text-anchor="middle" font-weight="bold">MINI DRONE KITS</text>
</svg>
